<?xml version="1.0" encoding="UTF-8" standalone="no"?>
<svg viewBox="0 0 302.65085 422.12537" xmlns="http://www.w3.org/2000/svg">
<g transform="translate(-79.97503,-243.33641)">
<path d="m266.89396,665.46179c-23.18371-6.13422-47.46866-8.36124-71.21049-4.77427-22.84411-1.62376-31.31753-29.04908-53.36016-32.68819-22.67337-7.30945-51.85811-14.61606-59.72107-40.34684-7.7144-29.74635 3.19855-59.53232 11.64211-87.78285 5.97529-17.39175-3.92539-33.9776-4.87853-51.13634-1.79755-22.04368 18.96067-35.36453 34.69412-46.53509 23.13547-13.68872 46.78853-27.45051 72.57965-35.38083 12.51472-4.76079 30.59574,12.06264 33.38946-9.18791 5.4881-17.39722 17.02135-32.44864 16.98127-51.61941 3.38509-23.8197 13.66931-50.96958 36.77924-61.7933 8.23015-3.55434 23.77494,4.80949 6.16893,4.69797-21.80698,5.49639-23.49578,31.88051-25.17735,50.32717-6.08883,18.04918-16.02939,34.5412-25.20196,51.15449-12.26698,21.99804-11.18656,48.11435-20.79552,71.1337-6.56284,17.99987-10.36831,37.07237-18.62134,54.39935-8.89663,28.72946-18.89784,47.91156-31.53952,64.90078-15.4665,17.77889.96737-20.72581 3.68966-28.36415 9.89026-14.34328 14.46431-31.5852 22.13601-47.62139 1.02954-28.45021 23.12103-47.71287-19.46767-62.70827-22.04841-11.76681-40.75348,8.935-50.48755,26.61124-16.52858,28.60999-17.89405,61.38493-29.95618,91.78465-7.03895,24.07751-14.64307,47.48981-3.55694,71.29393 10.47797,13.62332 27.56132,23.78574 41.08403,24.59775 9.54343,3.54181 25.55387-2.50154 33.92739,10.84017 35.48133,26.86161 26.46522,15.18929 61.68575,17.05351 21.80499-1.68032 2.10228-30.69866 11.8038-42.68089-.087-16.68204 5.31534-32.30808 15.86981-51.90885 7.81493-20.26735 21.62306-34.97437 23.58222-58.01108 2.01512-19.55557 8.38266-33.30465 14.38628-50.60031-2.49234-16.20337.12051-40.93308 10.49714-48.62526 7.63504-28.91112 9.9198-34.6298 27.46673-81.16465-5.2395-3.75764-19.56567-1.85067-7.08069-9.59032 19.38906-13.34694 7.28395-43.15732-9.42901-50.00282-11.40944-2.9472-10.35049-7.98757.56277-2.74167 25.35873,10.12728 32.32416,42.64596 21.97747,65.97494-9.40327,19.00076-11.77607,40.53475-19.58772,60.2125 .48209,18.35964-21.97911,35.70769-9.28473,53.1801-.19426,12.15935 2.78229,18.88946 16.71693,20.69745 16.41399,16.35661 46.2519,22.86504 52.29074,48.50949 8.72883,18.95146 3.84209,40.32446 3.56247,60.41951-1.92781,23.10113-6.91925,46.1851-15.73491,67.57629-8.77209,20.79828-31.76566,25.74846-52.01305,24.18985-19.64981-4.73343-28.45229,12.23368-46.36959,15.70985zm25.46417-39.31157c12.50771-29.06502 28.22775-59.20883 38.49971-92.2678 7.92134-21.6911 16.82708-48.31637 1.59622-69.05376-12.34147-18.2592-44.9218-14.85418-39.39905,11.62595-6.05241,17.35968-10.17781,35.97045-19.01038,52.13628-26.06599,47.70734-31.75372,75.39549-24.71538,107.99271 21.41277,24.32211 35.87159,10.43059 43.02888-10.43338zm40.49624,1.55142c30.14955-1.24466 45.47997-60.84088 43.81615-99.82971 5.12167-23.81799-29.51755-72.953-30.12458-40.20695 4.42406,18.80266 3.56182,38.84967-4.59753,56.52425-18.33221,27.30401-22.96044,41.93948-32.11965,71.10565-6.79399,13.46636 14.93359,11.07785 23.02561,12.40676zm-228.90137-162.46124c7.3396-21.30632 13.05566-44.9477 30.57849-60.52815-21.365,1.48068-59.25904,45.54664-32.83509,67.91999 .98522-2.38993 1.51203-4.92576 2.2566-7.39184zm109.7027-58.3486c14.13985-18.42257 5.01396-40.03988-15.21448-34.25089-11.53699,6.2054-31.86341,8.74379-37.67498,18.97725 18.36273.65871 32.34618,19.65218 50.60363,16.7999l2.28581-1.52627 2e-005,1e-005zm39.10575,44.86997c-7.9262-3.05797-18.98069-10.36869-3.82168-5.47991 8.50361,2.85362 21.5524,15.99782 3.82168,5.47991zm28.59278-103.66713c-18.21649-9.99125 7.46266-8.54639 4.91824,2.58253l-1.87588-.69016-3.04236-1.89237zm10.44261-12.14517c-6.34109-3.51804-24.81187-14.59295-6.89487-8.2109 5.54486,1.56163 20.90935,15.4465 6.89487,8.21091v-1e-005zm.32261-37.178c-14.49966-8.89269 26.6853,7.49929 19.95158,7.16964l-15.13191-4.29371-4.81967-2.87593zm-7.31882-5.14031c-12.91243-7.32542-2.34664-41.12354 3.381-36.40582-4.69836,11.31279-6.63835,24.44769-3.381,36.40582z"/>
</g>
</svg>
